# xmcd CD database file
#
# Track frame offsets:
#	150
#	13302
#	28637
#	43222
#	56075
#	78482
#	98735
#	115917
#	133425
#	146717
#	182242
#
# Disc length: 2434 seconds
#
# Revision: 0
# Processed by: cddbd v1.5.2PL0 Copyright (c) Steve Scherf et al.
# Submitted via: CDex 1.70beta2
#
DISCID=a409800b
DTITLE=Trevor Panczak - Here I Am
DYEAR=1900
DGENRE=Country
TTITLE0=Lance Can Dance
TTITLE1=Please Leave Me Tomorrow
TTITLE2=Here I Am
TTITLE3=State Of The Art
TTITLE4=Lullaby
TTITLE5=The Call
TTITLE6=Hey Charlie Brown
TTITLE7=I'm Gonna Ride
TTITLE8=I Want You
TTITLE9=Talkin' Friend
TTITLE10=Trevor's Secret Song 
EXTD=
EXTT0=
EXTT1=
EXTT2=
EXTT3=
EXTT4=
EXTT5=
EXTT6=
EXTT7=
EXTT8=
EXTT9=
EXTT10=
PLAYORDER=
